<?xml version="1.0" encoding="UTF-8" standalone="no"?>
<!-- Created with Inkscape (http://www.inkscape.org/) -->

<svg
   version="1.1"
   id="svg2"
   width="257.33334"
   height="257.33334"
   viewBox="0 0 257.33334 257.33334"
   sodipodi:docname="watch-your-watches-seeklogo.eps"
   xmlns:inkscape="http://www.inkscape.org/namespaces/inkscape"
   xmlns:sodipodi="http://sodipodi.sourceforge.net/DTD/sodipodi-0.dtd"
   xmlns="http://www.w3.org/2000/svg"
   xmlns:svg="http://www.w3.org/2000/svg">
  <defs
     id="defs6" />
  <sodipodi:namedview
     id="namedview4"
     pagecolor="#ffffff"
     bordercolor="#000000"
     borderopacity="0.25"
     inkscape:showpageshadow="2"
     inkscape:pageopacity="0.0"
     inkscape:pagecheckerboard="0"
     inkscape:deskcolor="#d1d1d1" />
  <g
     id="g8"
     inkscape:groupmode="layer"
     inkscape:label="ink_ext_XXXXXX"
     transform="matrix(1.3333333,0,0,-1.3333333,0,257.33333)">
    <g
       id="g10"
       transform="scale(0.1)">
      <path
         d="M 0,1927.56 H 1927.56 V 0 H 0 v 1927.56"
         style="fill:#ffffff;fill-opacity:1;fill-rule:evenodd;stroke:none"
         id="path12" />
      <path
         d="m 1319.23,1361.47 2.23,1.78 c -12.9,14.67 -26.24,29.34 -40.91,43.12 -122.26,122.27 -269.87,183.62 -442.812,183.62 -172.949,0 -321,-61.35 -443.707,-183.62 -9.781,-9.78 -19.558,-20.45 -28.898,-31.12 -1.336,-0.89 -2.668,-2.22 -4.445,-4 l -0.446,-5.34 c 136.934,140.05 296.102,208.97 478.828,206.74 182.29,-2.22 342.34,-72.47 480.16,-211.18"
         style="fill:#231f20;fill-opacity:1;fill-rule:evenodd;stroke:none"
         id="path14" />
      <path
         d="m 1464.62,963.113 c 0,8.891 -0.45,17.782 -0.89,26.231 C 1443.27,858.188 1376.59,732.813 1264.1,613.215 1151.18,493.176 1006.68,432.711 831.066,430.934 654.566,430.043 513.184,489.176 406.039,608.328 298.445,727.477 233.535,849.297 210.859,974.227 c 0,-3.555 0,-7.559 0,-11.114 C 210.414,790.168 271.77,642.559 394.031,520.297 516.738,397.59 664.789,336.234 837.738,336.234 c 172.942,0 320.552,61.356 442.812,184.063 122.71,122.262 184.07,269.871 184.07,442.816"
         style="fill:#231f20;fill-opacity:1;fill-rule:evenodd;stroke:none"
         id="path16" />
      <path
         d="M 349.574,1341.02 823.066,791.055 1718.48,1577.98 822.176,990.676 349.574,1341.02"
         style="fill:#231f20;fill-opacity:1;fill-rule:evenodd;stroke:none"
         id="path18" />
    </g>
  </g>
</svg>
